# xmcd CD database file
# Copyright (C) 1993-1998 Ti Kan
# 
# Track frame offsets:
#     182
#     16072
#     29580
#     44380
#     61842
#     80425
#     91510
#     108817
#     125567
#     141792
# 
# Disc length: 2138 seconds
# 
# Revision: 1
# Processed by: cddbd v1.4b41PL1 Copyright (c) Steve Scherf et al.
# Submitted via: DiscPlay 4.0.4
# 
DISCID=7308580a
DTITLE=Estes and Harding - Crystal City
DYEAR=1900
DGENRE=
TTITLE0=And She Said
TTITLE1=When We We re Together
TTITLE2=Freedom
TTITLE3=Crystal City (Plejades)
TTITLE4=Will You Still?
TTITLE5=Frustration Sensation
TTITLE6=Loving You (Leslie s Song)
TTITLE7=Keep Movin  On
TTITLE8=The Picture
TTITLE9=The High Road
EXTD=
EXTT0=
EXTT1=
EXTT2=
EXTT3=
EXTT4=
EXTT5=
EXTT6=
EXTT7=
EXTT8=
EXTT9=
PLAYORDER=
